<svg xmlns="http://www.w3.org/2000/svg" width="18" height="18" fill="none">
  <path fill="#DEDEDE" d="M0 0h18v18H0z" />
  <g clip-path="url(#a)">
    <path fill="#7A3145" d="M-32-43h768v7468H-32z" />
    <path fill="#576F35" d="M-32-43h768V981H-32z" />
    <g fill="#FBFBFB">
      <path
        d="M16.359.177h-2.256c-.695 0-1.26.552-1.26 1.234v2.21c0 .683.565 1.236 1.26 1.236h2.256c.696 0 1.26-.553 1.26-1.235v-2.21c0-.683-.564-1.235-1.26-1.235ZM3.786 12.96H1.357c-.75 0-1.357.553-1.357 1.235v2.21c0 .682.608 1.235 1.357 1.235h2.429c.75 0 1.357-.553 1.357-1.235v-2.21c0-.682-.608-1.235-1.357-1.235ZM3.515 6.515H1.26C.564 6.515 0 7.068 0 7.75v2.21c0 .682.564 1.235 1.26 1.235h2.255c.696 0 1.26-.553 1.26-1.235V7.75c0-.682-.564-1.235-1.26-1.235ZM9.993 12.925H7.738c-.696 0-1.26.553-1.26 1.235v2.21c0 .682.564 1.235 1.26 1.235h2.255c.696 0 1.26-.553 1.26-1.235v-2.21c0-.682-.564-1.235-1.26-1.235ZM3.515.049H1.26C.564.049 0 .6 0 1.283v2.21C0 4.177.564 4.73 1.26 4.73h2.255c.696 0 1.26-.553 1.26-1.235v-2.21C4.776.6 4.212.048 3.516.048ZM10.168 6.58H7.912c-.696 0-1.26.553-1.26 1.235v2.21c0 .682.565 1.235 1.26 1.235h2.256c.696 0 1.26-.553 1.26-1.235v-2.21c0-.682-.564-1.235-1.26-1.235ZM16.5 12.925h-2.255c-.696 0-1.26.553-1.26 1.235v2.21c0 .682.564 1.235 1.26 1.235H16.5c.696 0 1.26-.553 1.26-1.235v-2.21c0-.682-.564-1.235-1.26-1.235ZM9.895.126H7.639c-.696 0-1.26.553-1.26 1.235v2.21c0 .682.565 1.235 1.26 1.235h2.256c.696 0 1.26-.553 1.26-1.235V1.36c0-.682-.564-1.235-1.26-1.235ZM16.337 6.708h-2.255c-.696 0-1.26.553-1.26 1.235v2.21c0 .682.564 1.235 1.26 1.235h2.255c.696 0 1.26-.553 1.26-1.235v-2.21c0-.682-.564-1.235-1.26-1.235Z" />
    </g>
  </g>
  <defs>
    <clipPath id="a">
      <path fill="#fff" d="M-32-43h768v7468H-32z" />
    </clipPath>
    <symbol id="icon-vector3x" viewBox="0 0 32 32">
<path fill="#fbfbfb" style="fill: var(--color1, #fbfbfb)" d="M29.082 0.314h-4.010c-1.237 0-2.24 0.983-2.24 2.195v3.929c0 1.212 1.003 2.195 2.24 2.195h4.010c1.237 0 2.24-0.983 2.24-2.195v-3.929c0-1.212-1.003-2.195-2.24-2.195z"></path>
<path fill="#fbfbfb" style="fill: var(--color1, #fbfbfb)" d="M6.73 23.040h-4.318c-1.332 0-2.412 0.983-2.412 2.195v3.929c0 1.212 1.080 2.195 2.412 2.195h4.318c1.332 0 2.412-0.983 2.412-2.195v-3.929c0-1.212-1.080-2.195-2.412-2.195z"></path>
<path fill="#fbfbfb" style="fill: var(--color1, #fbfbfb)" d="M6.25 11.582h-4.009c-1.237 0-2.24 0.983-2.24 2.195v3.929c0 1.212 1.003 2.195 2.24 2.195h4.009c1.237 0 2.24-0.983 2.24-2.195v-3.929c0-1.212-1.003-2.195-2.24-2.195z"></path>
<path fill="#fbfbfb" style="fill: var(--color1, #fbfbfb)" d="M17.766 22.978h-4.009c-1.237 0-2.24 0.983-2.24 2.195l-0 3.929c0 1.212 1.003 2.196 2.241 2.196h4.009c1.237 0 2.24-0.983 2.24-2.196v-3.929c0-1.212-1.003-2.195-2.24-2.195z"></path>
<path fill="#fbfbfb" style="fill: var(--color1, #fbfbfb)" d="M6.25 0.086h-4.009c-1.237 0-2.24 0.983-2.24 2.195v3.929c0 1.212 1.003 2.195 2.24 2.195h4.009c1.237 0 2.24-0.983 2.24-2.195v-3.929c0-1.212-1.003-2.195-2.24-2.195z"></path>
<path fill="#fbfbfb" style="fill: var(--color1, #fbfbfb)" d="M18.076 11.697h-4.009c-1.237 0-2.24 0.983-2.24 2.195v3.929c0 1.212 1.003 2.195 2.24 2.195h4.009c1.237 0 2.24-0.983 2.24-2.195v-3.929c0-1.212-1.003-2.195-2.24-2.195z"></path>
<path fill="#fbfbfb" style="fill: var(--color1, #fbfbfb)" d="M29.333 22.978h-4.009c-1.237 0-2.24 0.983-2.24 2.195v3.929c0 1.212 1.003 2.196 2.24 2.196h4.009c1.237 0 2.24-0.983 2.24-2.196v-3.929c0-1.212-1.003-2.195-2.24-2.195z"></path>
<path fill="#fbfbfb" style="fill: var(--color1, #fbfbfb)" d="M17.591 0.224h-4.009c-1.237 0-2.24 0.983-2.24 2.195v3.929c0 1.212 1.003 2.195 2.24 2.195h4.009c1.237 0 2.24-0.984 2.24-2.196v-3.929c0-1.212-1.003-2.195-2.24-2.195z"></path>
<path fill="#fbfbfb" style="fill: var(--color1, #fbfbfb)" d="M29.044 11.926h-4.009c-1.237 0-2.24 0.983-2.24 2.195v3.929c0 1.212 1.003 2.195 2.24 2.195h4.009c1.237 0 2.24-0.983 2.24-2.195v-3.929c0-1.212-1.003-2.195-2.24-2.195z"></path>
</symbol>
  </defs>
</svg>

