<svg width="156" height="22" viewBox="0 0 156 22" fill="none" xmlns="http://www.w3.org/2000/svg">
<g filter="url(#filter0_d_30379_524)">
<mask id="path-1-outside-1_30379_524" maskUnits="userSpaceOnUse" x="4" y="0" width="148" height="14" fill="black">
<rect fill="white" x="4" width="148" height="14"/>
<path d="M11.301 13C7.5132 13 5 10.648 5 6.984C5 3.4 7.4773 1 11.2112 1C14.3527 1 16.5607 2.648 16.8839 5.128H14.2809C14.0296 3.704 12.8268 2.904 11.2112 2.904C8.94932 2.904 7.60296 4.536 7.60296 6.984C7.60296 9.672 9.11088 11.096 11.301 11.096C13.2038 11.096 14.4245 10.136 14.5502 8.696V8.536H11.0496V6.744H16.9736V8.216C16.8659 11.08 14.604 13 11.301 13Z"/>
<path d="M18.543 12.84V1.16H24.8439C28.0572 1.16 29.3318 2.552 29.3318 4.568C29.3318 6.376 27.8957 7.24 26.2262 7.448V7.496C27.3033 7.736 27.788 8.264 28.2368 9.304C28.8112 10.616 28.901 12.184 29.637 12.744V12.84H26.7647C26.1544 12.296 26.0108 10.584 25.6876 9.544C25.3645 8.472 24.6644 8.344 23.354 8.344H21.0562V12.84H18.543ZM21.0562 6.488H24.5747C26.0467 6.488 26.7288 5.72 26.7288 4.728C26.7288 3.64 25.8851 3.016 24.5747 3.016H21.0562V6.488Z"/>
<path d="M31.001 12.84V1.16H39.9588V3.016H33.5142V5.8H39.3305V7.656H33.5142V10.936H40.0485V12.84H31.001Z"/>
<path d="M41.7936 12.84V1.16H50.7514V3.016H44.3068V5.8H50.1231V7.656H44.3068V10.936H50.8411V12.84H41.7936Z"/>
<path d="M52.5862 12.84V1.16H55.638L59.9822 7.608C61.3106 9.56 61.4722 10.2 61.4722 10.2H61.526L61.4901 1.16H64.0033V12.84H60.9336L56.4278 6.2C55.4046 4.696 55.1353 3.784 55.1353 3.784H55.0994V12.84H52.5862Z"/>
<path d="M65.894 12.84V10.472H68.5149V12.84H65.894Z"/>
<path d="M70.4023 12.84V1.16H72.9155V5.832H78.9293V1.16H81.4425V12.84H78.9293V7.688H72.9155V12.84H70.4023Z"/>
<path d="M82.5166 12.84L87.543 1.16H90.2716L95.3699 12.84H92.6771L91.618 10.152H86.1787L85.1196 12.84H82.5166ZM86.8968 8.296H90.8999L89.7331 5.416C88.9253 3.288 88.9073 2.904 88.9073 2.904H88.8714C88.8714 2.904 88.8714 3.288 88.0636 5.416L86.8968 8.296Z"/>
<path d="M96.4403 12.84V1.16H102.741C105.955 1.16 107.229 2.552 107.229 4.568C107.229 6.376 105.793 7.24 104.124 7.448V7.496C105.201 7.736 105.685 8.264 106.134 9.304C106.709 10.616 106.798 12.184 107.534 12.744V12.84H104.662C104.052 12.296 103.908 10.584 103.585 9.544C103.262 8.472 102.562 8.344 101.251 8.344H98.9536V12.84H96.4403ZM98.9536 6.488H102.472C103.944 6.488 104.626 5.72 104.626 4.728C104.626 3.64 103.782 3.016 102.472 3.016H98.9536V6.488Z"/>
<path d="M111.563 12.84L106.752 1.16H109.445C109.445 1.16 112.048 7.704 112.317 8.504C112.748 9.784 112.945 10.44 112.945 10.44H112.981C112.963 10.44 113.161 9.784 113.609 8.504C113.897 7.704 116.392 1.16 116.392 1.16H118.995L114.363 12.84H111.563Z"/>
<path d="M120.024 12.84V1.16H128.982V3.016H122.537V5.8H128.354V7.656H122.537V10.936H129.072V12.84H120.024Z"/>
<path d="M135.311 13C131.972 13 129.961 11.384 129.961 8.984H132.834C132.798 10.344 133.803 11.096 135.311 11.096C136.909 11.096 137.662 10.536 137.662 9.704C137.662 8.872 137.016 8.52 134.718 7.96C132.618 7.448 130.32 6.84 130.32 4.44C130.32 2.536 132.187 1 135.131 1C138.165 1 140.104 2.52 140.104 4.664H137.321C137.303 3.528 136.442 2.904 135.131 2.904C133.857 2.904 133.013 3.48 133.013 4.248C133.013 5.16 133.713 5.448 135.544 5.912C138.255 6.584 140.445 6.856 140.445 9.464C140.445 11.56 138.309 13 135.311 13Z"/>
<path d="M144.537 12.84V3.064H140.57V1.16H151V3.064H147.051V12.84H144.537Z"/>
</mask>
<path d="M11.301 13C7.5132 13 5 10.648 5 6.984C5 3.4 7.4773 1 11.2112 1C14.3527 1 16.5607 2.648 16.8839 5.128H14.2809C14.0296 3.704 12.8268 2.904 11.2112 2.904C8.94932 2.904 7.60296 4.536 7.60296 6.984C7.60296 9.672 9.11088 11.096 11.301 11.096C13.2038 11.096 14.4245 10.136 14.5502 8.696V8.536H11.0496V6.744H16.9736V8.216C16.8659 11.08 14.604 13 11.301 13Z" fill="#FBFBFB"/>
<path d="M18.543 12.84V1.16H24.8439C28.0572 1.16 29.3318 2.552 29.3318 4.568C29.3318 6.376 27.8957 7.24 26.2262 7.448V7.496C27.3033 7.736 27.788 8.264 28.2368 9.304C28.8112 10.616 28.901 12.184 29.637 12.744V12.84H26.7647C26.1544 12.296 26.0108 10.584 25.6876 9.544C25.3645 8.472 24.6644 8.344 23.354 8.344H21.0562V12.84H18.543ZM21.0562 6.488H24.5747C26.0467 6.488 26.7288 5.72 26.7288 4.728C26.7288 3.64 25.8851 3.016 24.5747 3.016H21.0562V6.488Z" fill="#FBFBFB"/>
<path d="M31.001 12.84V1.16H39.9588V3.016H33.5142V5.8H39.3305V7.656H33.5142V10.936H40.0485V12.84H31.001Z" fill="#FBFBFB"/>
<path d="M41.7936 12.84V1.16H50.7514V3.016H44.3068V5.8H50.1231V7.656H44.3068V10.936H50.8411V12.84H41.7936Z" fill="#FBFBFB"/>
<path d="M52.5862 12.84V1.16H55.638L59.9822 7.608C61.3106 9.56 61.4722 10.2 61.4722 10.2H61.526L61.4901 1.16H64.0033V12.84H60.9336L56.4278 6.2C55.4046 4.696 55.1353 3.784 55.1353 3.784H55.0994V12.84H52.5862Z" fill="#FBFBFB"/>
<path d="M65.894 12.84V10.472H68.5149V12.84H65.894Z" fill="#FBFBFB"/>
<path d="M70.4023 12.84V1.16H72.9155V5.832H78.9293V1.16H81.4425V12.84H78.9293V7.688H72.9155V12.84H70.4023Z" fill="#FBFBFB"/>
<path d="M82.5166 12.84L87.543 1.16H90.2716L95.3699 12.84H92.6771L91.618 10.152H86.1787L85.1196 12.84H82.5166ZM86.8968 8.296H90.8999L89.7331 5.416C88.9253 3.288 88.9073 2.904 88.9073 2.904H88.8714C88.8714 2.904 88.8714 3.288 88.0636 5.416L86.8968 8.296Z" fill="#FBFBFB"/>
<path d="M96.4403 12.84V1.16H102.741C105.955 1.16 107.229 2.552 107.229 4.568C107.229 6.376 105.793 7.24 104.124 7.448V7.496C105.201 7.736 105.685 8.264 106.134 9.304C106.709 10.616 106.798 12.184 107.534 12.744V12.84H104.662C104.052 12.296 103.908 10.584 103.585 9.544C103.262 8.472 102.562 8.344 101.251 8.344H98.9536V12.84H96.4403ZM98.9536 6.488H102.472C103.944 6.488 104.626 5.72 104.626 4.728C104.626 3.64 103.782 3.016 102.472 3.016H98.9536V6.488Z" fill="#FBFBFB"/>
<path d="M111.563 12.84L106.752 1.16H109.445C109.445 1.16 112.048 7.704 112.317 8.504C112.748 9.784 112.945 10.44 112.945 10.44H112.981C112.963 10.44 113.161 9.784 113.609 8.504C113.897 7.704 116.392 1.16 116.392 1.16H118.995L114.363 12.84H111.563Z" fill="#FBFBFB"/>
<path d="M120.024 12.84V1.16H128.982V3.016H122.537V5.8H128.354V7.656H122.537V10.936H129.072V12.84H120.024Z" fill="#FBFBFB"/>
<path d="M135.311 13C131.972 13 129.961 11.384 129.961 8.984H132.834C132.798 10.344 133.803 11.096 135.311 11.096C136.909 11.096 137.662 10.536 137.662 9.704C137.662 8.872 137.016 8.52 134.718 7.96C132.618 7.448 130.32 6.84 130.32 4.44C130.32 2.536 132.187 1 135.131 1C138.165 1 140.104 2.52 140.104 4.664H137.321C137.303 3.528 136.442 2.904 135.131 2.904C133.857 2.904 133.013 3.48 133.013 4.248C133.013 5.16 133.713 5.448 135.544 5.912C138.255 6.584 140.445 6.856 140.445 9.464C140.445 11.56 138.309 13 135.311 13Z" fill="#FBFBFB"/>
<path d="M144.537 12.84V3.064H140.57V1.16H151V3.064H147.051V12.84H144.537Z" fill="#FBFBFB"/>
<path d="M11.301 13C7.5132 13 5 10.648 5 6.984C5 3.4 7.4773 1 11.2112 1C14.3527 1 16.5607 2.648 16.8839 5.128H14.2809C14.0296 3.704 12.8268 2.904 11.2112 2.904C8.94932 2.904 7.60296 4.536 7.60296 6.984C7.60296 9.672 9.11088 11.096 11.301 11.096C13.2038 11.096 14.4245 10.136 14.5502 8.696V8.536H11.0496V6.744H16.9736V8.216C16.8659 11.08 14.604 13 11.301 13Z" stroke="black" stroke-width="2" mask="url(#path-1-outside-1_30379_524)"/>
<path d="M18.543 12.84V1.16H24.8439C28.0572 1.16 29.3318 2.552 29.3318 4.568C29.3318 6.376 27.8957 7.24 26.2262 7.448V7.496C27.3033 7.736 27.788 8.264 28.2368 9.304C28.8112 10.616 28.901 12.184 29.637 12.744V12.84H26.7647C26.1544 12.296 26.0108 10.584 25.6876 9.544C25.3645 8.472 24.6644 8.344 23.354 8.344H21.0562V12.84H18.543ZM21.0562 6.488H24.5747C26.0467 6.488 26.7288 5.72 26.7288 4.728C26.7288 3.64 25.8851 3.016 24.5747 3.016H21.0562V6.488Z" stroke="black" stroke-width="2" mask="url(#path-1-outside-1_30379_524)"/>
<path d="M31.001 12.84V1.16H39.9588V3.016H33.5142V5.8H39.3305V7.656H33.5142V10.936H40.0485V12.84H31.001Z" stroke="black" stroke-width="2" mask="url(#path-1-outside-1_30379_524)"/>
<path d="M41.7936 12.84V1.16H50.7514V3.016H44.3068V5.8H50.1231V7.656H44.3068V10.936H50.8411V12.84H41.7936Z" stroke="black" stroke-width="2" mask="url(#path-1-outside-1_30379_524)"/>
<path d="M52.5862 12.84V1.16H55.638L59.9822 7.608C61.3106 9.56 61.4722 10.2 61.4722 10.2H61.526L61.4901 1.16H64.0033V12.84H60.9336L56.4278 6.2C55.4046 4.696 55.1353 3.784 55.1353 3.784H55.0994V12.84H52.5862Z" stroke="black" stroke-width="2" mask="url(#path-1-outside-1_30379_524)"/>
<path d="M65.894 12.84V10.472H68.5149V12.84H65.894Z" stroke="black" stroke-width="2" mask="url(#path-1-outside-1_30379_524)"/>
<path d="M70.4023 12.84V1.16H72.9155V5.832H78.9293V1.16H81.4425V12.84H78.9293V7.688H72.9155V12.84H70.4023Z" stroke="black" stroke-width="2" mask="url(#path-1-outside-1_30379_524)"/>
<path d="M82.5166 12.84L87.543 1.16H90.2716L95.3699 12.84H92.6771L91.618 10.152H86.1787L85.1196 12.84H82.5166ZM86.8968 8.296H90.8999L89.7331 5.416C88.9253 3.288 88.9073 2.904 88.9073 2.904H88.8714C88.8714 2.904 88.8714 3.288 88.0636 5.416L86.8968 8.296Z" stroke="black" stroke-width="2" mask="url(#path-1-outside-1_30379_524)"/>
<path d="M96.4403 12.84V1.16H102.741C105.955 1.16 107.229 2.552 107.229 4.568C107.229 6.376 105.793 7.24 104.124 7.448V7.496C105.201 7.736 105.685 8.264 106.134 9.304C106.709 10.616 106.798 12.184 107.534 12.744V12.84H104.662C104.052 12.296 103.908 10.584 103.585 9.544C103.262 8.472 102.562 8.344 101.251 8.344H98.9536V12.84H96.4403ZM98.9536 6.488H102.472C103.944 6.488 104.626 5.72 104.626 4.728C104.626 3.64 103.782 3.016 102.472 3.016H98.9536V6.488Z" stroke="black" stroke-width="2" mask="url(#path-1-outside-1_30379_524)"/>
<path d="M111.563 12.84L106.752 1.16H109.445C109.445 1.16 112.048 7.704 112.317 8.504C112.748 9.784 112.945 10.44 112.945 10.44H112.981C112.963 10.44 113.161 9.784 113.609 8.504C113.897 7.704 116.392 1.16 116.392 1.16H118.995L114.363 12.84H111.563Z" stroke="black" stroke-width="2" mask="url(#path-1-outside-1_30379_524)"/>
<path d="M120.024 12.84V1.16H128.982V3.016H122.537V5.8H128.354V7.656H122.537V10.936H129.072V12.84H120.024Z" stroke="black" stroke-width="2" mask="url(#path-1-outside-1_30379_524)"/>
<path d="M135.311 13C131.972 13 129.961 11.384 129.961 8.984H132.834C132.798 10.344 133.803 11.096 135.311 11.096C136.909 11.096 137.662 10.536 137.662 9.704C137.662 8.872 137.016 8.52 134.718 7.96C132.618 7.448 130.32 6.84 130.32 4.44C130.32 2.536 132.187 1 135.131 1C138.165 1 140.104 2.52 140.104 4.664H137.321C137.303 3.528 136.442 2.904 135.131 2.904C133.857 2.904 133.013 3.48 133.013 4.248C133.013 5.16 133.713 5.448 135.544 5.912C138.255 6.584 140.445 6.856 140.445 9.464C140.445 11.56 138.309 13 135.311 13Z" stroke="black" stroke-width="2" mask="url(#path-1-outside-1_30379_524)"/>
<path d="M144.537 12.84V3.064H140.57V1.16H151V3.064H147.051V12.84H144.537Z" stroke="black" stroke-width="2" mask="url(#path-1-outside-1_30379_524)"/>
</g>
<defs>
<filter id="filter0_d_30379_524" x="0" y="0" width="156" height="22" filterUnits="userSpaceOnUse" color-interpolation-filters="sRGB">
<feFlood flood-opacity="0" result="BackgroundImageFix"/>
<feColorMatrix in="SourceAlpha" type="matrix" values="0 0 0 0 0 0 0 0 0 0 0 0 0 0 0 0 0 0 127 0" result="hardAlpha"/>
<feOffset dy="4"/>
<feGaussianBlur stdDeviation="2"/>
<feComposite in2="hardAlpha" operator="out"/>
<feColorMatrix type="matrix" values="0 0 0 0 0 0 0 0 0 0 0 0 0 0 0 0 0 0 0.25 0"/>
<feBlend mode="normal" in2="BackgroundImageFix" result="effect1_dropShadow_30379_524"/>
<feBlend mode="normal" in="SourceGraphic" in2="effect1_dropShadow_30379_524" result="shape"/>
</filter>
</defs>
</svg>
